name new_emg_signals
nRows=45
nColumns=7
 
endheader
time	LGLTMED	LRF	LADDLONG	LBF	LTA	LGM
2.099999999999957	0.6895468270617736	0.7770140013051282	0.6347983175045294	0.7802290803233604	0.9287143138874234	0.8848880636248013
2.109999999999957	0.6885416894108776	0.7792608170343196	0.6377753595852949	0.7806469715989576	0.9280708146961272	0.883170597802668
2.119999999999955	0.6875077065103306	0.781531889840816	0.6408766267058537	0.7811350664297657	0.9274191967420988	0.8814621677671115
2.1299999999999546	0.6864451376937879	0.7838252878493146	0.644099621550057	0.7816931641336659	0.926757898054794	0.8797654953633802
2.1399999999999544	0.6853543445154816	0.7861390882846396	0.6474417615802458	0.7823209499867383	0.9260854209725602	0.8780832531541897
2.149999999999954	0.684235789156732	0.7884713787100142	0.6509003827977632	0.7830179928892472	0.9254003406292352	0.8764180583693341
2.159999999999954	0.6830900327572826	0.7908202582934559	0.6544727434162833	0.7837837434846394	0.9247013131249756	0.8747724671928773
2.169999999999952	0.6819177336826932	0.7931838391076386	0.6581560274355385	0.7846175327440668	0.9239870833280808	0.8731489694000885
2.1799999999999518	0.6807196457382477	0.7955602474674811	0.6619473481048923	0.7855185710274192	0.9232564922549362	0.8715499833547649
2.1899999999999515	0.6794966163389711	0.7979476253082773	0.6658437512678643	0.7864859476303017	0.9225084839768308	0.8699778513757992
2.199999999999953	0.6782495846448524	0.800344131605242	0.669842218580293	0.7875186308239882	0.9217421120056232	0.8684348354810314
2.209999999999953	0.6769795796698282	0.8027479438342913	0.6739396705968298	0.7886154683930522	0.9209565451144044	0.8669231135151406
2.2199999999999527	0.675687718373061	0.8051572594730424	0.6781329697230833	0.7897751886722446	0.9201510725529096	0.8654447756673759
2.2299999999999525	0.6743752037407903	0.8075702975405064	0.6824189230332235	0.7909964020817295	0.919325108620336	0.8640018213837076
2.2399999999999523	0.6730433228669381	0.8099853001733877	0.6867942849549324	0.7922776031566217	0.9184781965604124	0.8625961566765009
2.249999999999952	0.6716934450400227	0.8124005342360433	0.6912557598247275	0.7936171730643846	0.9176100117473656	0.8612295918332993
2.259999999999952	0.6703270198433392	0.814814292960655	0.6958000043170296	0.7950133826011396	0.9167203641388418	0.8599038395251225
2.2699999999999516	0.6689455752747618	0.8172248976138968	0.7004236297504308	0.7964643956554638	0.9158091999831792	0.8586205133138195
2.279999999999953	0.6675507158917388	0.8196306991862963	0.7051232042745705	0.7979682731265866	0.914876602781076	0.8573811265579011
2.289999999999951	0.666144120985416	0.8220300801005122	0.7098952549414524	0.7995229772820902	0.913922793512469	0.8561870917151833
2.299999999999951	0.6647275427859544	0.8244214559357458	0.7147362696653874	0.8011263765392912	0.912948130146254	0.8550397200398014
2.3099999999999508	0.663302804698968	0.8268032771674568	0.7196426990758117	0.8027762506529146	0.9119531064542572	0.8539402216690145
2.3199999999999505	0.661871799571175	0.8291740309234346	0.7246109582673319	0.804470296290292	0.9109383501523676	0.852889706093064
2.3299999999999503	0.6604364879823654	0.8315322427583068	0.7296374284507926	0.8062061329736642	0.9099046203930108	0.8518891829991657
2.33999999999995	0.658998896559724	0.8338764784476892	0.7347184585088264	0.8079813093669125	0.9088528046345375	0.8509395634782264
2.34999999999995	0.6575611163099763	0.8362053458022033	0.7398503664584403	0.8097933098824383	0.9077839149155212	0.8500416615806627
2.3599999999999497	0.6561253009635547	0.8385174965000443	0.7450294408215594	0.8116395615817633	0.9066990835644084	0.8491961962052883
2.3699999999999477	0.6546936653241496	0.8408116279363553	0.7502519419024224	0.8135174413420806	0.9055995583772942	0.8484037933025821
2.3799999999999493	0.653268483615783	0.8430864850865285	0.7555141029691399	0.8154242832592182	0.9044866972971112	0.8476649883710993
2.389999999999949	0.6518520878182836	0.8453408623799828	0.7608121313366395	0.8173573862560609	0.9033619626267632	0.8469802292232724
2.399999999999949	0.6504468659812419	0.8475736055791283	0.7661422093502384	0.8193140218638606	0.9022269148066951	0.8463498789949216
2.4099999999999486	0.6490552605052486	0.8497836136568161	0.7715004952733027	0.8212914421421547	0.9010832057854148	0.8457742193715988
2.4199999999999484	0.6476797663778517	0.8519698406638169	0.7768831240880474	0.8232868877020046	0.8999325720104965	0.8452534540042045
2.429999999999948	0.6463229293504817	0.8541312975770444	0.7822862082245682	0.8252975957965104	0.898776827067858	0.8447877120854173
2.439999999999948	0.6449873440408745	0.8562670541182036	0.7877058382386605	0.8273208084425198	0.8976178539990498	0.8443770520570902
2.4499999999999478	0.6436756519440572	0.858376240531325	0.7931380834630893	0.8293537805366118	0.8964575973295281	0.8440214654173512
2.4599999999999476	0.6423905393333972	0.8604580493062619	0.7985789926601613	0.8313937879276583	0.8952980548445899	0.8437208805957478
2.469999999999949	0.6411347350314612	0.8625117368334149	0.8040245947055784	0.8334381354076571	0.894141269152392	0.8434751668662532
2.479999999999949	0.6399110080288051	0.8645366249733552	0.8094708993344277	0.8354841645824362	0.8929893190740684	0.8432841382722013
2.489999999999947	0.6387221649273229	0.866532102523653	0.814913897980042	0.8375292615848386	0.8918443108999996	0.8431475575420893
2.4999999999999467	0.6375710471832992	0.8684976265638631	0.8203495647352729	0.8395708645945216	0.8907083695492632	0.843065139979613
2.5099999999999465	0.6364605281238668	0.870432723658101	0.8257738574647046	0.8416064711298681	0.8895836296674446	0.843036557312564
2.5199999999999463	0.6353935097096789	0.8723369908928641	0.8311827190943926	0.8436336450789685	0.8884722266961002	0.8430614414855809
2.529999999999946	0.634372919017745	0.8742100967258823	0.8365720791038761	0.8456500234364942	0.8873762879452927	0.8431393883813503
2.539999999999944	0.6334017044226452	0.8760517816204456	0.8419378552428265	0.8476533227126746	0.886297923698904	0.8432699614552002
